<svg xmlns="http://www.w3.org/2000/svg" viewBox="0 0 1200 900" role="img" aria-label="CloudRest Neck Pillow illustration">
  <rect width="1200" height="900" fill="#eff6ff" />
  <rect x="110" y="80" width="980" height="740" rx="72" fill="#dbeafe" />
  <path d="M520 236c152 0 300 94 300 252 0 112-72 204-176 204-66 0-110-41-110-93 0-42 28-72 64-72 34 0 62 24 62 59 0 34-24 60-58 60" fill="none" stroke="#1d4ed8" stroke-width="80" stroke-linecap="round" />
  <path d="M520 236c-152 0-300 94-300 252 0 112 72 204 176 204 66 0 110-41 110-93 0-42-28-72-64-72-34 0-62 24-62 59 0 34 24 60 58 60" fill="none" stroke="#1e3a8a" stroke-width="80" stroke-linecap="round" />
</svg>
