<svg xmlns="http://www.w3.org/2000/svg" viewBox="0 0 128 128" role="img" aria-label="Shopedia mark">
  <defs>
    <linearGradient id="shopediaGradient" x1="12" x2="116" y1="12" y2="116" gradientUnits="userSpaceOnUse">
      <stop offset="0" stop-color="#22c55e" />
      <stop offset="1" stop-color="#166534" />
    </linearGradient>
  </defs>
  <rect width="128" height="128" rx="32" fill="url(#shopediaGradient)" />
  <path fill="#fff" d="M34 42.5a6 6 0 0 1 6-6h12.2l4.4-10.7A5.5 5.5 0 0 1 61.7 22h4.6a5.5 5.5 0 0 1 5.1 3.8l4.4 10.7H88a6 6 0 0 1 0 12h-2.2l-5.2 39.1A11.4 11.4 0 0 1 69.3 98H58.7a11.4 11.4 0 0 1-11.3-10.4L42.2 48.5H40a6 6 0 0 1-6-6Zm20.3 6 4.9 36.9a3.4 3.4 0 0 0 3.5 3h10.6a3.4 3.4 0 0 0 3.5-3l4.9-36.9Zm10.7-12h1.9l-2.1-5.3Z" />
  <circle cx="54" cy="104" r="6" fill="#dcfce7" />
  <circle cx="74" cy="104" r="6" fill="#dcfce7" />
</svg>
