<svg xmlns="http://www.w3.org/2000/svg" viewBox="0 0 1200 630" role="img" aria-label="Shopedia Open Graph card">
  <defs>
    <linearGradient id="bg" x1="120" x2="1080" y1="60" y2="570" gradientUnits="userSpaceOnUse">
      <stop offset="0" stop-color="#f0fdf4" />
      <stop offset="1" stop-color="#dcfce7" />
    </linearGradient>
    <linearGradient id="panel" x1="280" x2="950" y1="130" y2="500" gradientUnits="userSpaceOnUse">
      <stop offset="0" stop-color="#16a34a" />
      <stop offset="1" stop-color="#166534" />
    </linearGradient>
  </defs>
  <rect width="1200" height="630" fill="#f8fafc" />
  <rect x="40" y="40" width="1120" height="550" rx="44" fill="url(#bg)" stroke="#bbf7d0" stroke-width="2" />
  <g transform="translate(100 110)">
    <rect width="122" height="122" rx="30" fill="url(#panel)" />
    <path fill="#fff" d="M24 41.5a6 6 0 0 1 6-6h12.2l4.4-10.7A5.5 5.5 0 0 1 51.7 21h4.6a5.5 5.5 0 0 1 5.1 3.8l4.4 10.7H78a6 6 0 0 1 0 12h-2.2l-5.2 39.1A11.4 11.4 0 0 1 59.3 97H48.7a11.4 11.4 0 0 1-11.3-10.4L32.2 47.5H30a6 6 0 0 1-6-6Zm20.3 6 4.9 36.9a3.4 3.4 0 0 0 3.5 3h10.6a3.4 3.4 0 0 0 3.5-3l4.9-36.9Zm10.7-12h1.9l-2.1-5.3Z" />
    <circle cx="44" cy="103" r="6" fill="#dcfce7" />
    <circle cx="64" cy="103" r="6" fill="#dcfce7" />
  </g>
  <text x="260" y="180" fill="#166534" font-size="28" font-family="Inter, Segoe UI, Arial, sans-serif" font-weight="700" letter-spacing="5">SHOPEDIA</text>
  <text x="260" y="265" fill="#0f172a" font-size="72" font-family="Inter, Segoe UI, Arial, sans-serif" font-weight="900">Demo marketplace UI playground</text>
  <text x="260" y="330" fill="#334155" font-size="30" font-family="Inter, Segoe UI, Arial, sans-serif">Astro + Svelte storefront flows with IndexedDB persistence and routed mock API requests.</text>
  <g transform="translate(260 390)">
    <rect width="210" height="68" rx="34" fill="#16a34a" />
    <text x="105" y="43" fill="#fff" font-size="26" font-family="Inter, Segoe UI, Arial, sans-serif" font-weight="700" text-anchor="middle">Login • Cart • History</text>
  </g>
  <g transform="translate(780 395)">
    <rect width="260" height="150" rx="32" fill="#fff" stroke="#bbf7d0" stroke-width="2" />
    <text x="28" y="46" fill="#166534" font-size="18" font-family="Inter, Segoe UI, Arial, sans-serif" font-weight="700">Seeded customer</text>
    <text x="28" y="82" fill="#0f172a" font-size="24" font-family="Inter, Segoe UI, Arial, sans-serif" font-weight="800">customer@gghgh.dev</text>
    <text x="28" y="118" fill="#475569" font-size="22" font-family="Inter, Segoe UI, Arial, sans-serif">password123</text>
  </g>
</svg>
